# xmcd CD database file
#
# Track frame offsets:
#	150
#	24687
#	49095
#	84830
#
# Disc length: 4440 seconds
#
# Revision: 7
# Processed by: cddbd v1.5.1PL0 Copyright (c) Steve Scherf et al.
# Submitted via: CDex 1.51
#
DISCID=25115604
DTITLE=SUPER BELL”Z - かいじ１０１号
DYEAR=2004
DGENRE=JPop
TTITLE0=かいじ１０１号
TTITLE1=あずさ２号
TTITLE2=かいじ１０１号−オリジナルカラオケ
TTITLE3=データ
EXTD=YEAR: 2004
EXTT0=
EXTT1=
EXTT2=
EXTT3=
PLAYORDER=
